{
    "accessors": [
        {
            "bufferView": 0,
            "componentType": 5126,
            "count": 480,
            "max": [
                0.00599120045080781,
                0.0,
                0.006000000052154064
            ],
            "min": [
                0.0,
                -0.0010000000474974513,
                -0.006000000052154064
            ],
            "name": "mesh0_coord_accessor",
            "type": "VEC3"
        },
        {
            "bufferView": 1,
            "componentType": 5126,
            "count": 480,
            "max": [
                2.0816681711721685e-16,
                1.0,
                1.0
            ],
            "min": [
                -0.9985334277153015,
                1.2246468525851679e-16,
                -1.0
            ],
            "name": "mesh0_norm_accessor",
            "type": "VEC3"
        },
        {
            "bufferView": 2,
            "componentType": 5126,
            "count": 480,
            "max": [
                1.0,
                1.0
            ],
            "min": [
                0.0,
                0.0
            ],
            "name": "mesh0_texcoord_accessor",
            "type": "VEC2"
        },
        {
            "bufferView": 3,
            "componentType": 5125,
            "count": 2610,
            "max": [
                479
            ],
            "min": [
                0
            ],
            "name": "mesh0_idx_accessor",
            "type": "SCALAR"
        },
        {
            "bufferView": 4,
            "componentType": 5126,
            "count": 480,
            "max": [
                7.347880536484578e-19,
                0.0,
                0.006000000052154064
            ],
            "min": [
                -0.00599120045080781,
                -0.0010000000474974513,
                -0.006000000052154064
            ],
            "name": "mesh1_coord_accessor",
            "type": "VEC3"
        },
        {
            "bufferView": 5,
            "componentType": 5126,
            "count": 480,
            "max": [
                0.9985334277153015,
                1.0,
                1.0
            ],
            "min": [
                -1.2246468525851679e-16,
                1.2246468525851679e-16,
                -1.0
            ],
            "name": "mesh1_norm_accessor",
            "type": "VEC3"
        },
        {
            "bufferView": 6,
            "componentType": 5126,
            "count": 480,
            "max": [
                1.0,
                1.0
            ],
            "min": [
                0.0,
                0.0
            ],
            "name": "mesh1_texcoord_accessor",
            "type": "VEC2"
        },
        {
            "bufferView": 7,
            "componentType": 5125,
            "count": 2610,
            "max": [
                479
            ],
            "min": [
                0
            ],
            "name": "mesh1_idx_accessor",
            "type": "SCALAR"
        },
        {
            "bufferView": 8,
            "componentType": 5126,
            "count": 60,
            "max": [
                6.12323395273311e-19,
                -0.0010000000474974513,
                0.004999999888241291
            ],
            "min": [
                -0.004992667119950056,
                -0.024000000208616257,
                -0.004999999888241291
            ],
            "name": "mesh2_coord_accessor",
            "type": "VEC3"
        },
        {
            "bufferView": 9,
            "componentType": 5126,
            "count": 60,
            "max": [
                0.9985334277153015,
                -0.0,
                1.0
            ],
            "min": [
                -1.2246468525851679e-16,
                -0.0,
                -1.0
            ],
            "name": "mesh2_norm_accessor",
            "type": "VEC3"
        },
        {
            "bufferView": 10,
            "componentType": 5126,
            "count": 60,
            "max": [
                1.0,
                1.0
            ],
            "min": [
                0.0,
                0.0
            ],
            "name": "mesh2_texcoord_accessor",
            "type": "VEC2"
        },
        {
            "bufferView": 11,
            "componentType": 5125,
            "count": 174,
            "max": [
                59
            ],
            "min": [
                0
            ],
            "name": "mesh2_idx_accessor",
            "type": "SCALAR"
        },
        {
            "bufferView": 12,
            "componentType": 5126,
            "count": 60,
            "max": [
                0.004992667119950056,
                -0.0010000000474974513,
                0.004999999888241291
            ],
            "min": [
                0.0,
                -0.024000000208616257,
                -0.004999999888241291
            ],
            "name": "mesh3_coord_accessor",
            "type": "VEC3"
        },
        {
            "bufferView": 13,
            "componentType": 5126,
            "count": 60,
            "max": [
                -0.0,
                -0.0,
                1.0
            ],
            "min": [
                -0.9985334277153015,
                -0.0,
                -1.0
            ],
            "name": "mesh3_norm_accessor",
            "type": "VEC3"
        },
        {
            "bufferView": 14,
            "componentType": 5126,
            "count": 60,
            "max": [
                1.0,
                1.0
            ],
            "min": [
                0.0,
                0.0
            ],
            "name": "mesh3_texcoord_accessor",
            "type": "VEC2"
        },
        {
            "bufferView": 15,
            "componentType": 5125,
            "count": 174,
            "max": [
                59
            ],
            "min": [
                0
            ],
            "name": "mesh3_idx_accessor",
            "type": "SCALAR"
        },
        {
            "bufferView": 16,
            "componentType": 5126,
            "count": 480,
            "max": [
                0.00599120045080781,
                -0.024000000208616257,
                0.006000000052154064
            ],
            "min": [
                0.0,
                -0.02500000037252903,
                -0.006000000052154064
            ],
            "name": "mesh4_coord_accessor",
            "type": "VEC3"
        },
        {
            "bufferView": 17,
            "componentType": 5126,
            "count": 480,
            "max": [
                2.0816681711721685e-16,
                -1.2246468525851679e-16,
                1.0
            ],
            "min": [
                -0.9985334277153015,
                -1.0,
                -1.0
            ],
            "name": "mesh4_norm_accessor",
            "type": "VEC3"
        },
        {
            "bufferView": 18,
            "componentType": 5126,
            "count": 480,
            "max": [
                1.0,
                1.0
            ],
            "min": [
                0.0,
                0.0
            ],
            "name": "mesh4_texcoord_accessor",
            "type": "VEC2"
        },
        {
            "bufferView": 19,
            "componentType": 5125,
            "count": 2610,
            "max": [
                479
            ],
            "min": [
                0
            ],
            "name": "mesh4_idx_accessor",
            "type": "SCALAR"
        },
        {
            "bufferView": 20,
            "componentType": 5126,
            "count": 480,
            "max": [
                7.347880536484578e-19,
                -0.024000000208616257,
                0.006000000052154064
            ],
            "min": [
                -0.00599120045080781,
                -0.02500000037252903,
                -0.006000000052154064
            ],
            "name": "mesh5_coord_accessor",
            "type": "VEC3"
        },
        {
            "bufferView": 21,
            "componentType": 5126,
            "count": 480,
            "max": [
                0.9985334277153015,
                -1.2246468525851679e-16,
                1.0
            ],
            "min": [
                -1.2246468525851679e-16,
                -1.0,
                -1.0
            ],
            "name": "mesh5_norm_accessor",
            "type": "VEC3"
        },
        {
            "bufferView": 22,
            "componentType": 5126,
            "count": 480,
            "max": [
                1.0,
                1.0
            ],
            "min": [
                0.0,
                0.0
            ],
            "name": "mesh5_texcoord_accessor",
            "type": "VEC2"
        },
        {
            "bufferView": 23,
            "componentType": 5125,
            "count": 2610,
            "max": [
                479
            ],
            "min": [
                0
            ],
            "name": "mesh5_idx_accessor",
            "type": "SCALAR"
        },
        {
            "bufferView": 24,
            "componentType": 5126,
            "count": 106,
            "max": [
                0.06587682664394379,
                -0.02500000037252903,
                0.008999713696539402
            ],
            "min": [
                -0.008999999612569809,
                -0.02500000037252903,
                -0.00957754161208868
            ],
            "name": "mesh6_coord_accessor",
            "type": "VEC3"
        },
        {
            "bufferView": 25,
            "componentType": 5126,
            "count": 106,
            "max": [
                0.0,
                -1.0,
                0.0
            ],
            "min": [
                0.0,
                -1.0,
                0.0
            ],
            "name": "mesh6_norm_accessor",
            "type": "VEC3"
        },
        {
            "bufferView": 26,
            "componentType": 5126,
            "count": 106,
            "max": [
                1.0,
                1.0
            ],
            "min": [
                0.0,
                0.0
            ],
            "name": "mesh6_texcoord_accessor",
            "type": "VEC2"
        },
        {
            "bufferView": 27,
            "componentType": 5125,
            "count": 318,
            "max": [
                105
            ],
            "min": [
                0
            ],
            "name": "mesh6_idx_accessor",
            "type": "SCALAR"
        },
        {
            "bufferView": 28,
            "componentType": 5126,
            "count": 368,
            "max": [
                0.006603937596082687,
                -0.024000000208616257,
                0.009999682195484638
            ],
            "min": [
                -0.009999999776482582,
                -0.02500000037252903,
                1.0788914661577609e-18
            ],
            "name": "mesh7_coord_accessor",
            "type": "VEC3"
        },
        {
            "bufferView": 29,
            "componentType": 5126,
            "count": 368,
            "max": [
                0.6603937745094299,
                0.0,
                0.9999682307243347
            ],
            "min": [
                -1.0,
                -1.0,
                -2.7755575615628914e-17
            ],
            "name": "mesh7_norm_accessor",
            "type": "VEC3"
        },
        {
            "bufferView": 30,
            "componentType": 5126,
            "count": 368,
            "max": [
                1.0,
                1.0
            ],
            "min": [
                0.0,
                0.0
            ],
            "name": "mesh7_texcoord_accessor",
            "type": "VEC2"
        },
        {
            "bufferView": 31,
            "componentType": 5125,
            "count": 1980,
            "max": [
                367
            ],
            "min": [
                0
            ],
            "name": "mesh7_idx_accessor",
            "type": "SCALAR"
        },
        {
            "bufferView": 32,
            "componentType": 5126,
            "count": 32,
            "max": [
                -0.008999999612569809,
                -0.024000000208616257,
                1.6030571053712555e-18
            ],
            "min": [
                -0.009999999776482582,
                -0.02500000037252903,
                -0.005577540956437588
            ],
            "name": "mesh8_coord_accessor",
            "type": "VEC3"
        },
        {
            "bufferView": 33,
            "componentType": 5126,
            "count": 32,
            "max": [
                -1.8369701465288538e-16,
                1.2246468525851679e-16,
                0.0
            ],
            "min": [
                -1.0,
                -1.0,
                0.0
            ],
            "name": "mesh8_norm_accessor",
            "type": "VEC3"
        },
        {
            "bufferView": 34,
            "componentType": 5126,
            "count": 32,
            "max": [
                1.0,
                1.0
            ],
            "min": [
                0.0,
                0.0
            ],
            "name": "mesh8_texcoord_accessor",
            "type": "VEC2"
        },
        {
            "bufferView": 35,
            "componentType": 5125,
            "count": 90,
            "max": [
                31
            ],
            "min": [
                0
            ],
            "name": "mesh8_idx_accessor",
            "type": "SCALAR"
        },
        {
            "bufferView": 36,
            "componentType": 5126,
            "count": 128,
            "max": [
                0.007264331448823214,
                -0.024000000208616257,
                0.007509194780141115
            ],
            "min": [
                0.005943543743342161,
                -0.02500000037252903,
                0.0062601142562925816
            ],
            "name": "mesh9_coord_accessor",
            "type": "VEC3"
        },
        {
            "bufferView": 37,
            "componentType": 5126,
            "count": 128,
            "max": [
                0.6603937745094299,
                -1.2246468525851679e-16,
                1.0
            ],
            "min": [
                -2.489962139248179e-16,
                -1.0,
                -5.026408917246082e-16
            ],
            "name": "mesh9_norm_accessor",
            "type": "VEC3"
        },
        {
            "bufferView": 38,
            "componentType": 5126,
            "count": 128,
            "max": [
                1.0,
                1.0
            ],
            "min": [
                0.0,
                0.0
            ],
            "name": "mesh9_texcoord_accessor",
            "type": "VEC2"
        },
        {
            "bufferView": 39,
            "componentType": 5125,
            "count": 630,
            "max": [
                127
            ],
            "min": [
                0
            ],
            "name": "mesh9_idx_accessor",
            "type": "SCALAR"
        },
        {
            "bufferView": 40,
            "componentType": 5126,
            "count": 46,
            "max": [
                0.006603937596082687,
                -0.0010000000474974513,
                0.009999682195484638
            ],
            "min": [
                -0.009999999776482582,
                -0.024000000208616257,
                1.224646790546622e-18
            ],
            "name": "mesh10_coord_accessor",
            "type": "VEC3"
        },
        {
            "bufferView": 41,
            "componentType": 5126,
            "count": 46,
            "max": [
                0.6603937745094299,
                0.0,
                0.9999682307243347
            ],
            "min": [
                -1.0,
                0.0,
                2.7755575615628914e-16
            ],
            "name": "mesh10_norm_accessor",
            "type": "VEC3"
        },
        {
            "bufferView": 42,
            "componentType": 5126,
            "count": 46,
            "max": [
                1.0,
                1.0
            ],
            "min": [
                0.0,
                0.0
            ],
            "name": "mesh10_texcoord_accessor",
            "type": "VEC2"
        },
        {
            "bufferView": 43,
            "componentType": 5125,
            "count": 132,
            "max": [
                45
            ],
            "min": [
                0
            ],
            "name": "mesh10_idx_accessor",
            "type": "SCALAR"
        },
        {
            "bufferView": 44,
            "componentType": 5126,
            "count": 256,
            "max": [
                -0.004999999888241291,
                -0.024000000208616257,
                -0.005577540956437588
            ],
            "min": [
                -0.009999999776482582,
                -0.02500000037252903,
                -0.010577540844678879
            ],
            "name": "mesh11_coord_accessor",
            "type": "VEC3"
        },
        {
            "bufferView": 45,
            "componentType": 5126,
            "count": 256,
            "max": [
                -3.659500962110533e-17,
                0.0,
                1.8369701465288538e-16
            ],
            "min": [
                -1.0,
                -1.0,
                -1.0
            ],
            "name": "mesh11_norm_accessor",
            "type": "VEC3"
        },
        {
            "bufferView": 46,
            "componentType": 5126,
            "count": 256,
            "max": [
                1.0,
                1.0
            ],
            "min": [
                0.0,
                0.0
            ],
            "name": "mesh11_texcoord_accessor",
            "type": "VEC2"
        },
        {
            "bufferView": 47,
            "componentType": 5125,
            "count": 1350,
            "max": [
                255
            ],
            "min": [
                0
            ],
            "name": "mesh11_idx_accessor",
            "type": "SCALAR"
        },
        {
            "bufferView": 48,
            "componentType": 5126,
            "count": 4,
            "max": [
                -0.009999999776482582,
                -0.0010000000474974513,
                1.224646790546622e-18
            ],
            "min": [
                -0.009999999776482582,
                -0.024000000208616257,
                -0.005577540956437588
            ],
            "name": "mesh12_coord_accessor",
            "type": "VEC3"
        },
        {
            "bufferView": 49,
            "componentType": 5126,
            "count": 4,
            "max": [
                -1.0,
                0.0,
                0.0
            ],
            "min": [
                -1.0,
                0.0,
                0.0
            ],
            "name": "mesh12_norm_accessor",
            "type": "VEC3"
        },
        {
            "bufferView": 50,
            "componentType": 5126,
            "count": 4,
            "max": [
                1.0,
                1.0
            ],
            "min": [
                0.0,
                0.0
            ],
            "name": "mesh12_texcoord_accessor",
            "type": "VEC2"
        },
        {
            "bufferView": 51,
            "componentType": 5125,
            "count": 6,
            "max": [
                3
            ],
            "min": [
                0
            ],
            "name": "mesh12_idx_accessor",
            "type": "SCALAR"
        },
        {
            "bufferView": 52,
            "componentType": 5126,
            "count": 368,
            "max": [
                0.006603937596082687,
                0.0,
                0.009999682195484638
            ],
            "min": [
                -0.009999999776482582,
                -0.0010000000474974513,
                1.0788914661577609e-18
            ],
            "name": "mesh13_coord_accessor",
            "type": "VEC3"
        },
        {
            "bufferView": 53,
            "componentType": 5126,
            "count": 368,
            "max": [
                0.6603937745094299,
                1.0,
                0.9999682307243347
            ],
            "min": [
                -1.0,
                0.0,
                6.368148380232377e-18
            ],
            "name": "mesh13_norm_accessor",
            "type": "VEC3"
        },
        {
            "bufferView": 54,
            "componentType": 5126,
            "count": 368,
            "max": [
                1.0,
                1.0
            ],
            "min": [
                0.0,
                0.0
            ],
            "name": "mesh13_texcoord_accessor",
            "type": "VEC2"
        },
        {
            "bufferView": 55,
            "componentType": 5125,
            "count": 1980,
            "max": [
                367
            ],
            "min": [
                0
            ],
            "name": "mesh13_idx_accessor",
            "type": "SCALAR"
        },
        {
            "bufferView": 56,
            "componentType": 5126,
            "count": 16,
            "max": [
                0.007264331448823214,
                -0.0010000000474974513,
                0.007509194780141115
            ],
            "min": [
                0.006603937596082687,
                -0.024000000208616257,
                0.007260114420205355
            ],
            "name": "mesh14_coord_accessor",
            "type": "VEC3"
        },
        {
            "bufferView": 57,
            "componentType": 5126,
            "count": 16,
            "max": [
                0.6603937745094299,
                -0.0,
                1.0
            ],
            "min": [
                -1.2246468525851679e-16,
                -0.0,
                0.7509194612503052
            ],
            "name": "mesh14_norm_accessor",
            "type": "VEC3"
        },
        {
            "bufferView": 58,
            "componentType": 5126,
            "count": 16,
            "max": [
                1.0,
                1.0
            ],
            "min": [
                0.0,
                0.0
            ],
            "name": "mesh14_texcoord_accessor",
            "type": "VEC2"
        },
        {
            "bufferView": 59,
            "componentType": 5125,
            "count": 42,
            "max": [
                15
            ],
            "min": [
                0
            ],
            "name": "mesh14_idx_accessor",
            "type": "SCALAR"
        },
        {
            "bufferView": 60,
            "componentType": 5126,
            "count": 32,
            "max": [
                0.06587682664394379,
                -0.024000000208616257,
                0.007260114420205355
            ],
            "min": [
                0.007264331448823214,
                -0.02500000037252903,
                0.0062601142562925816
            ],
            "name": "mesh15_coord_accessor",
            "type": "VEC3"
        },
        {
            "bufferView": 61,
            "componentType": 5126,
            "count": 32,
            "max": [
                0.0,
                -0.0,
                1.0
            ],
            "min": [
                -1.2246468525851679e-16,
                -1.0,
                1.8369701465288538e-16
            ],
            "name": "mesh15_norm_accessor",
            "type": "VEC3"
        },
        {
            "bufferView": 62,
            "componentType": 5126,
            "count": 32,
            "max": [
                1.0,
                1.0
            ],
            "min": [
                0.0,
                0.0
            ],
            "name": "mesh15_texcoord_accessor",
            "type": "VEC2"
        },
        {
            "bufferView": 63,
            "componentType": 5125,
            "count": 90,
            "max": [
                31
            ],
            "min": [
                0
            ],
            "name": "mesh15_idx_accessor",
            "type": "SCALAR"
        },
        {
            "bufferView": 64,
            "componentType": 5126,
            "count": 32,
            "max": [
                -0.008999999612569809,
                0.0,
                1.6030571053712555e-18
            ],
            "min": [
                -0.009999999776482582,
                -0.0010000000474974513,
                -0.005577540956437588
            ],
            "name": "mesh16_coord_accessor",
            "type": "VEC3"
        },
        {
            "bufferView": 65,
            "componentType": 5126,
            "count": 32,
            "max": [
                -6.123234262925839e-17,
                1.0,
                0.0
            ],
            "min": [
                -1.0,
                0.0,
                0.0
            ],
            "name": "mesh16_norm_accessor",
            "type": "VEC3"
        },
        {
            "bufferView": 66,
            "componentType": 5126,
            "count": 32,
            "max": [
                1.0,
                1.0
            ],
            "min": [
                0.0,
                0.0
            ],
            "name": "mesh16_texcoord_accessor",
            "type": "VEC2"
        },
        {
            "bufferView": 67,
            "componentType": 5125,
            "count": 90,
            "max": [
                31
            ],
            "min": [
                0
            ],
            "name": "mesh16_idx_accessor",
            "type": "SCALAR"
        },
        {
            "bufferView": 68,
            "componentType": 5126,
            "count": 32,
            "max": [
                -0.004999999888241291,
                -0.0010000000474974513,
                -0.005577540956437588
            ],
            "min": [
                -0.009999999776482582,
                -0.024000000208616257,
                -0.010577540844678879
            ],
            "name": "mesh17_coord_accessor",
            "type": "VEC3"
        },
        {
            "bufferView": 69,
            "componentType": 5126,
            "count": 32,
            "max": [
                1.2246468525851679e-16,
                0.0,
                -1.8369701465288538e-16
            ],
            "min": [
                -1.0,
                0.0,
                -1.0
            ],
            "name": "mesh17_norm_accessor",
            "type": "VEC3"
        },
        {
            "bufferView": 70,
            "componentType": 5126,
            "count": 32,
            "max": [
                1.0,
                1.0
            ],
            "min": [
                0.0,
                0.0
            ],
            "name": "mesh17_texcoord_accessor",
            "type": "VEC2"
        },
        {
            "bufferView": 71,
            "componentType": 5125,
            "count": 90,
            "max": [
                31
            ],
            "min": [
                0
            ],
            "name": "mesh17_idx_accessor",
            "type": "SCALAR"
        },
        {
            "bufferView": 72,
            "componentType": 5126,
            "count": 32,
            "max": [
                0.06587682664394379,
                -0.024000000208616257,
                -0.00957754161208868
            ],
            "min": [
                -0.004999999888241291,
                -0.02500000037252903,
                -0.010577540844678879
            ],
            "name": "mesh18_coord_accessor",
            "type": "VEC3"
        },
        {
            "bufferView": 73,
            "componentType": 5126,
            "count": 32,
            "max": [
                1.6894269332845053e-16,
                1.2246468525851679e-16,
                -7.28912423990499e-15
            ],
            "min": [
                1.2314443084186019e-30,
                -1.0,
                -1.0
            ],
            "name": "mesh18_norm_accessor",
            "type": "VEC3"
        },
        {
            "bufferView": 74,
            "componentType": 5126,
            "count": 32,
            "max": [
                1.0,
                1.0
            ],
            "min": [
                0.0,
                0.0
            ],
            "name": "mesh18_texcoord_accessor",
            "type": "VEC2"
        },
        {
            "bufferView": 75,
            "componentType": 5125,
            "count": 90,
            "max": [
                31
            ],
            "min": [
                0
            ],
            "name": "mesh18_idx_accessor",
            "type": "SCALAR"
        },
        {
            "bufferView": 76,
            "componentType": 5126,
            "count": 32,
            "max": [
                0.06687682867050171,
                -0.024000000208616257,
                0.0062601142562925816
            ],
            "min": [
                0.06587682664394379,
                -0.02500000037252903,
                -0.00957754161208868
            ],
            "name": "mesh19_coord_accessor",
            "type": "VEC3"
        },
        {
            "bufferView": 77,
            "componentType": 5126,
            "count": 32,
            "max": [
                1.0,
                1.2246468525851679e-16,
                0.0
            ],
            "min": [
                1.8369701465288538e-16,
                -1.0,
                0.0
            ],
            "name": "mesh19_norm_accessor",
            "type": "VEC3"
        },
        {
            "bufferView": 78,
            "componentType": 5126,
            "count": 32,
            "max": [
                1.0,
                1.0
            ],
            "min": [
                0.0,
                0.0
            ],
            "name": "mesh19_texcoord_accessor",
            "type": "VEC2"
        },
        {
            "bufferView": 79,
            "componentType": 5125,
            "count": 90,
            "max": [
                31
            ],
            "min": [
                0
            ],
            "name": "mesh19_idx_accessor",
            "type": "SCALAR"
        },
        {
            "bufferView": 80,
            "componentType": 5126,
            "count": 128,
            "max": [
                0.007264331448823214,
                0.0,
                0.007509194780141115
            ],
            "min": [
                0.005943543743342161,
                -0.0010000000474974513,
                0.0062601142562925816
            ],
            "name": "mesh20_coord_accessor",
            "type": "VEC3"
        },
        {
            "bufferView": 81,
            "componentType": 5126,
            "count": 128,
            "max": [
                0.6603937745094299,
                1.0,
                1.0
            ],
            "min": [
                -3.3371120829283187e-16,
                1.2246468525851679e-16,
                -3.794558049444516e-16
            ],
            "name": "mesh20_norm_accessor",
            "type": "VEC3"
        },
        {
            "bufferView": 82,
            "componentType": 5126,
            "count": 128,
            "max": [
                1.0,
                1.0
            ],
            "min": [
                0.0,
                0.0
            ],
            "name": "mesh20_texcoord_accessor",
            "type": "VEC2"
        },
        {
            "bufferView": 83,
            "componentType": 5125,
            "count": 630,
            "max": [
                127
            ],
            "min": [
                0
            ],
            "name": "mesh20_idx_accessor",
            "type": "SCALAR"
        },
        {
            "bufferView": 84,
            "componentType": 5126,
            "count": 4,
            "max": [
                0.06587682664394379,
                -0.0010000000474974513,
                0.007260114420205355
            ],
            "min": [
                0.007264331448823214,
                -0.024000000208616257,
                0.007260114420205355
            ],
            "name": "mesh21_coord_accessor",
            "type": "VEC3"
        },
        {
            "bufferView": 85,
            "componentType": 5126,
            "count": 4,
            "max": [
                0.0,
                0.0,
                1.0
            ],
            "min": [
                0.0,
                0.0,
                1.0
            ],
            "name": "mesh21_norm_accessor",
            "type": "VEC3"
        },
        {
            "bufferView": 86,
            "componentType": 5126,
            "count": 4,
            "max": [
                1.0,
                1.0
            ],
            "min": [
                0.0,
                0.0
            ],
            "name": "mesh21_texcoord_accessor",
            "type": "VEC2"
        },
        {
            "bufferView": 87,
            "componentType": 5125,
            "count": 6,
            "max": [
                3
            ],
            "min": [
                0
            ],
            "name": "mesh21_idx_accessor",
            "type": "SCALAR"
        },
        {
            "bufferView": 88,
            "componentType": 5126,
            "count": 241,
            "max": [
                0.06687682867050171,
                -0.024000000208616257,
                0.007260114420205355
            ],
            "min": [
                0.06587682664394379,
                -0.02500000037252903,
                0.0062601142562925816
            ],
            "name": "mesh22_coord_accessor",
            "type": "VEC3"
        },
        {
            "bufferView": 89,
            "componentType": 5126,
            "count": 241,
            "max": [
                1.0,
                0.0,
                1.0
            ],
            "min": [
                0.0,
                -1.0,
                -6.123234262925839e-17
            ],
            "name": "mesh22_norm_accessor",
            "type": "VEC3"
        },
        {
            "bufferView": 90,
            "componentType": 5126,
            "count": 241,
            "max": [
                1.0,
                1.0
            ],
            "min": [
                0.0,
                0.0
            ],
            "name": "mesh22_texcoord_accessor",
            "type": "VEC2"
        },
        {
            "bufferView": 91,
            "componentType": 5125,
            "count": 1305,
            "max": [
                240
            ],
            "min": [
                0
            ],
            "name": "mesh22_idx_accessor",
            "type": "SCALAR"
        },
        {
            "bufferView": 92,
            "componentType": 5126,
            "count": 256,
            "max": [
                -0.004999999888241291,
                0.0,
                -0.005577540956437588
            ],
            "min": [
                -0.009999999776482582,
                -0.0010000000474974513,
                -0.010577540844678879
            ],
            "name": "mesh23_coord_accessor",
            "type": "VEC3"
        },
        {
            "bufferView": 93,
            "componentType": 5126,
            "count": 256,
            "max": [
                -2.177534077668383e-32,
                1.0,
                1.8369701465288538e-16
            ],
            "min": [
                -1.0,
                0.0,
                -1.0
            ],
            "name": "mesh23_norm_accessor",
            "type": "VEC3"
        },
        {
            "bufferView": 94,
            "componentType": 5126,
            "count": 256,
            "max": [
                1.0,
                1.0
            ],
            "min": [
                0.0,
                0.0
            ],
            "name": "mesh23_texcoord_accessor",
            "type": "VEC2"
        },
        {
            "bufferView": 95,
            "componentType": 5125,
            "count": 1350,
            "max": [
                255
            ],
            "min": [
                0
            ],
            "name": "mesh23_idx_accessor",
            "type": "SCALAR"
        },
        {
            "bufferView": 96,
            "componentType": 5126,
            "count": 106,
            "max": [
                0.06587682664394379,
                0.0,
                0.008999713696539402
            ],
            "min": [
                -0.008999999612569809,
                0.0,
                -0.00957754161208868
            ],
            "name": "mesh24_coord_accessor",
            "type": "VEC3"
        },
        {
            "bufferView": 97,
            "componentType": 5126,
            "count": 106,
            "max": [
                -0.0,
                1.0,
                -0.0
            ],
            "min": [
                -0.0,
                1.0,
                -0.0
            ],
            "name": "mesh24_norm_accessor",
            "type": "VEC3"
        },
        {
            "bufferView": 98,
            "componentType": 5126,
            "count": 106,
            "max": [
                1.0,
                1.0
            ],
            "min": [
                0.0,
                0.0
            ],
            "name": "mesh24_texcoord_accessor",
            "type": "VEC2"
        },
        {
            "bufferView": 99,
            "componentType": 5125,
            "count": 318,
            "max": [
                105
            ],
            "min": [
                0
            ],
            "name": "mesh24_idx_accessor",
            "type": "SCALAR"
        },
        {
            "bufferView": 100,
            "componentType": 5126,
            "count": 4,
            "max": [
                0.06687682867050171,
                -0.0010000000474974513,
                0.0062601142562925816
            ],
            "min": [
                0.06687682867050171,
                -0.024000000208616257,
                -0.00957754161208868
            ],
            "name": "mesh25_coord_accessor",
            "type": "VEC3"
        },
        {
            "bufferView": 101,
            "componentType": 5126,
            "count": 4,
            "max": [
                1.0,
                0.0,
                0.0
            ],
            "min": [
                1.0,
                0.0,
                0.0
            ],
            "name": "mesh25_norm_accessor",
            "type": "VEC3"
        },
        {
            "bufferView": 102,
            "componentType": 5126,
            "count": 4,
            "max": [
                1.0,
                1.0
            ],
            "min": [
                0.0,
                0.0
            ],
            "name": "mesh25_texcoord_accessor",
            "type": "VEC2"
        },
        {
            "bufferView": 103,
            "componentType": 5125,
            "count": 6,
            "max": [
                3
            ],
            "min": [
                0
            ],
            "name": "mesh25_idx_accessor",
            "type": "SCALAR"
        },
        {
            "bufferView": 104,
            "componentType": 5126,
            "count": 4,
            "max": [
                0.06587682664394379,
                -0.0010000000474974513,
                -0.010577540844678879
            ],
            "min": [
                -0.004999999888241291,
                -0.024000000208616257,
                -0.010577540844678879
            ],
            "name": "mesh26_coord_accessor",
            "type": "VEC3"
        },
        {
            "bufferView": 105,
            "componentType": 5126,
            "count": 4,
            "max": [
                1.6894269332845053e-16,
                -0.0,
                -1.0
            ],
            "min": [
                1.6894269332845053e-16,
                -0.0,
                -1.0
            ],
            "name": "mesh26_norm_accessor",
            "type": "VEC3"
        },
        {
            "bufferView": 106,
            "componentType": 5126,
            "count": 4,
            "max": [
                1.0,
                1.0
            ],
            "min": [
                0.0,
                0.0
            ],
            "name": "mesh26_texcoord_accessor",
            "type": "VEC2"
        },
        {
            "bufferView": 107,
            "componentType": 5125,
            "count": 6,
            "max": [
                3
            ],
            "min": [
                0
            ],
            "name": "mesh26_idx_accessor",
            "type": "SCALAR"
        },
        {
            "bufferView": 108,
            "componentType": 5126,
            "count": 241,
            "max": [
                0.06687682867050171,
                -0.024000000208616257,
                -0.00957754161208868
            ],
            "min": [
                0.06587682664394379,
                -0.02500000037252903,
                -0.010577540844678879
            ],
            "name": "mesh27_coord_accessor",
            "type": "VEC3"
        },
        {
            "bufferView": 109,
            "componentType": 5126,
            "count": 241,
            "max": [
                1.0,
                -0.0,
                1.734723475976807e-15
            ],
            "min": [
                0.0,
                -1.0,
                -1.0
            ],
            "name": "mesh27_norm_accessor",
            "type": "VEC3"
        },
        {
            "bufferView": 110,
            "componentType": 5126,
            "count": 241,
            "max": [
                1.0,
                1.0
            ],
            "min": [
                0.0,
                0.0
            ],
            "name": "mesh27_texcoord_accessor",
            "type": "VEC2"
        },
        {
            "bufferView": 111,
            "componentType": 5125,
            "count": 1305,
            "max": [
                240
            ],
            "min": [
                0
            ],
            "name": "mesh27_idx_accessor",
            "type": "SCALAR"
        },
        {
            "bufferView": 112,
            "componentType": 5126,
            "count": 32,
            "max": [
                0.06687682867050171,
                -0.0010000000474974513,
                0.007260114420205355
            ],
            "min": [
                0.06587682664394379,
                -0.024000000208616257,
                0.0062601142562925816
            ],
            "name": "mesh28_coord_accessor",
            "type": "VEC3"
        },
        {
            "bufferView": 113,
            "componentType": 5126,
            "count": 32,
            "max": [
                1.0,
                0.0,
                1.0
            ],
            "min": [
                0.0,
                0.0,
                6.123234262925839e-17
            ],
            "name": "mesh28_norm_accessor",
            "type": "VEC3"
        },
        {
            "bufferView": 114,
            "componentType": 5126,
            "count": 32,
            "max": [
                1.0,
                1.0
            ],
            "min": [
                0.0,
                0.0
            ],
            "name": "mesh28_texcoord_accessor",
            "type": "VEC2"
        },
        {
            "bufferView": 115,
            "componentType": 5125,
            "count": 90,
            "max": [
                31
            ],
            "min": [
                0
            ],
            "name": "mesh28_idx_accessor",
            "type": "SCALAR"
        },
        {
            "bufferView": 116,
            "componentType": 5126,
            "count": 32,
            "max": [
                0.06587682664394379,
                0.0,
                0.007260114420205355
            ],
            "min": [
                0.007264331448823214,
                -0.0010000000474974513,
                0.0062601142562925816
            ],
            "name": "mesh29_coord_accessor",
            "type": "VEC3"
        },
        {
            "bufferView": 117,
            "componentType": 5126,
            "count": 32,
            "max": [
                0.0,
                1.0,
                1.0
            ],
            "min": [
                0.0,
                0.0,
                6.123234262925839e-17
            ],
            "name": "mesh29_norm_accessor",
            "type": "VEC3"
        },
        {
            "bufferView": 118,
            "componentType": 5126,
            "count": 32,
            "max": [
                1.0,
                1.0
            ],
            "min": [
                0.0,
                0.0
            ],
            "name": "mesh29_texcoord_accessor",
            "type": "VEC2"
        },
        {
            "bufferView": 119,
            "componentType": 5125,
            "count": 90,
            "max": [
                31
            ],
            "min": [
                0
            ],
            "name": "mesh29_idx_accessor",
            "type": "SCALAR"
        },
        {
            "bufferView": 120,
            "componentType": 5126,
            "count": 241,
            "max": [
                0.06687682867050171,
                0.0,
                0.007260114420205355
            ],
            "min": [
                0.06587682664394379,
                -0.0010000000474974513,
                0.0062601142562925816
            ],
            "name": "mesh30_coord_accessor",
            "type": "VEC3"
        },
        {
            "bufferView": 121,
            "componentType": 5126,
            "count": 241,
            "max": [
                1.0,
                1.0,
                1.0
            ],
            "min": [
                0.0,
                -0.0,
                0.0
            ],
            "name": "mesh30_norm_accessor",
            "type": "VEC3"
        },
        {
            "bufferView": 122,
            "componentType": 5126,
            "count": 241,
            "max": [
                1.0,
                1.0
            ],
            "min": [
                0.0,
                0.0
            ],
            "name": "mesh30_texcoord_accessor",
            "type": "VEC2"
        },
        {
            "bufferView": 123,
            "componentType": 5125,
            "count": 1305,
            "max": [
                240
            ],
            "min": [
                0
            ],
            "name": "mesh30_idx_accessor",
            "type": "SCALAR"
        },
        {
            "bufferView": 124,
            "componentType": 5126,
            "count": 32,
            "max": [
                0.06587682664394379,
                0.0,
                -0.00957754161208868
            ],
            "min": [
                -0.004999999888241291,
                -0.0010000000474974513,
                -0.010577540844678879
            ],
            "name": "mesh31_coord_accessor",
            "type": "VEC3"
        },
        {
            "bufferView": 125,
            "componentType": 5126,
            "count": 32,
            "max": [
                1.6894269332845053e-16,
                1.0,
                1.6081226229577292e-16
            ],
            "min": [
                -2.7168057762299356e-32,
                0.0,
                -1.0
            ],
            "name": "mesh31_norm_accessor",
            "type": "VEC3"
        },
        {
            "bufferView": 126,
            "componentType": 5126,
            "count": 32,
            "max": [
                1.0,
                1.0
            ],
            "min": [
                0.0,
                0.0
            ],
            "name": "mesh31_texcoord_accessor",
            "type": "VEC2"
        },
        {
            "bufferView": 127,
            "componentType": 5125,
            "count": 90,
            "max": [
                31
            ],
            "min": [
                0
            ],
            "name": "mesh31_idx_accessor",
            "type": "SCALAR"
        },
        {
            "bufferView": 128,
            "componentType": 5126,
            "count": 32,
            "max": [
                0.06687682867050171,
                -0.0010000000474974513,
                -0.00957754161208868
            ],
            "min": [
                0.06587682664394379,
                -0.024000000208616257,
                -0.010577540844678879
            ],
            "name": "mesh32_coord_accessor",
            "type": "VEC3"
        },
        {
            "bufferView": 129,
            "componentType": 5126,
            "count": 32,
            "max": [
                1.0,
                0.0,
                -6.123234262925839e-17
            ],
            "min": [
                0.0,
                0.0,
                -1.0
            ],
            "name": "mesh32_norm_accessor",
            "type": "VEC3"
        },
        {
            "bufferView": 130,
            "componentType": 5126,
            "count": 32,
            "max": [
                1.0,
                1.0
            ],
            "min": [
                0.0,
                0.0
            ],
            "name": "mesh32_texcoord_accessor",
            "type": "VEC2"
        },
        {
            "bufferView": 131,
            "componentType": 5125,
            "count": 90,
            "max": [
                31
            ],
            "min": [
                0
            ],
            "name": "mesh32_idx_accessor",
            "type": "SCALAR"
        },
        {
            "bufferView": 132,
            "componentType": 5126,
            "count": 32,
            "max": [
                0.06687682867050171,
                0.0,
                0.0062601142562925816
            ],
            "min": [
                0.06587682664394379,
                -0.0010000000474974513,
                -0.00957754161208868
            ],
            "name": "mesh33_coord_accessor",
            "type": "VEC3"
        },
        {
            "bufferView": 133,
            "componentType": 5126,
            "count": 32,
            "max": [
                1.0,
                1.0,
                -0.0
            ],
            "min": [
                6.123234262925839e-17,
                0.0,
                -6.123234262925839e-17
            ],
            "name": "mesh33_norm_accessor",
            "type": "VEC3"
        },
        {
            "bufferView": 134,
            "componentType": 5126,
            "count": 32,
            "max": [
                1.0,
                1.0
            ],
            "min": [
                0.0,
                0.0
            ],
            "name": "mesh33_texcoord_accessor",
            "type": "VEC2"
        },
        {
            "bufferView": 135,
            "componentType": 5125,
            "count": 90,
            "max": [
                31
            ],
            "min": [
                0
            ],
            "name": "mesh33_idx_accessor",
            "type": "SCALAR"
        },
        {
            "bufferView": 136,
            "componentType": 5126,
            "count": 241,
            "max": [
                0.06687682867050171,
                0.0,
                -0.00957754161208868
            ],
            "min": [
                0.06587682664394379,
                -0.0010000000474974513,
                -0.010577540844678879
            ],
            "name": "mesh34_coord_accessor",
            "type": "VEC3"
        },
        {
            "bufferView": 137,
            "componentType": 5126,
            "count": 241,
            "max": [
                1.0,
                1.0,
                -0.0
            ],
            "min": [
                0.0,
                -8.801466944755823e-16,
                -1.0
            ],
            "name": "mesh34_norm_accessor",
            "type": "VEC3"
        },
        {
            "bufferView": 138,
            "componentType": 5126,
            "count": 241,
            "max": [
                1.0,
                1.0
            ],
            "min": [
                0.0,
                0.0
            ],
            "name": "mesh34_texcoord_accessor",
            "type": "VEC2"
        },
        {
            "bufferView": 139,
            "componentType": 5125,
            "count": 1305,
            "max": [
                240
            ],
            "min": [
                0
            ],
            "name": "mesh34_idx_accessor",
            "type": "SCALAR"
        }
    ],
    "asset": {
        "generator": "ONSHAPE BY PTC INC, 1.220",
        "version": "2.0"
    },
    "bufferViews": [
        {
            "buffer": 0,
            "byteLength": 5760,
            "name": "mesh0_coord_bufferView",
            "target": 34962
        },
        {
            "buffer": 0,
            "byteLength": 5760,
            "byteOffset": 5760,
            "name": "mesh0_norm_bufferView",
            "target": 34962
        },
        {
            "buffer": 0,
            "byteLength": 3840,
            "byteOffset": 11520,
            "name": "mesh0_texcoord_bufferView",
            "target": 34962
        },
        {
            "buffer": 0,
            "byteLength": 10440,
            "byteOffset": 15360,
            "name": "mesh0_idx_bufferView",
            "target": 34963
        },
        {
            "buffer": 0,
            "byteLength": 5760,
            "byteOffset": 25800,
            "name": "mesh1_coord_bufferView",
            "target": 34962
        },
        {
            "buffer": 0,
            "byteLength": 5760,
            "byteOffset": 31560,
            "name": "mesh1_norm_bufferView",
            "target": 34962
        },
        {
            "buffer": 0,
            "byteLength": 3840,
            "byteOffset": 37320,
            "name": "mesh1_texcoord_bufferView",
            "target": 34962
        },
        {
            "buffer": 0,
            "byteLength": 10440,
            "byteOffset": 41160,
            "name": "mesh1_idx_bufferView",
            "target": 34963
        },
        {
            "buffer": 0,
            "byteLength": 720,
            "byteOffset": 51600,
            "name": "mesh2_coord_bufferView",
            "target": 34962
        },
        {
            "buffer": 0,
            "byteLength": 720,
            "byteOffset": 52320,
            "name": "mesh2_norm_bufferView",
            "target": 34962
        },
        {
            "buffer": 0,
            "byteLength": 480,
            "byteOffset": 53040,
            "name": "mesh2_texcoord_bufferView",
            "target": 34962
        },
        {
            "buffer": 0,
            "byteLength": 696,
            "byteOffset": 53520,
            "name": "mesh2_idx_bufferView",
            "target": 34963
        },
        {
            "buffer": 0,
            "byteLength": 720,
            "byteOffset": 54216,
            "name": "mesh3_coord_bufferView",
            "target": 34962
        },
        {
            "buffer": 0,
            "byteLength": 720,
            "byteOffset": 54936,
            "name": "mesh3_norm_bufferView",
            "target": 34962
        },
        {
            "buffer": 0,
            "byteLength": 480,
            "byteOffset": 55656,
            "name": "mesh3_texcoord_bufferView",
            "target": 34962
        },
        {
            "buffer": 0,
            "byteLength": 696,
            "byteOffset": 56136,
            "name": "mesh3_idx_bufferView",
            "target": 34963
        },
        {
            "buffer": 0,
            "byteLength": 5760,
            "byteOffset": 56832,
            "name": "mesh4_coord_bufferView",
            "target": 34962
        },
        {
            "buffer": 0,
            "byteLength": 5760,
            "byteOffset": 62592,
            "name": "mesh4_norm_bufferView",
            "target": 34962
        },
        {
            "buffer": 0,
            "byteLength": 3840,
            "byteOffset": 68352,
            "name": "mesh4_texcoord_bufferView",
            "target": 34962
        },
        {
            "buffer": 0,
            "byteLength": 10440,
            "byteOffset": 72192,
            "name": "mesh4_idx_bufferView",
            "target": 34963
        },
        {
            "buffer": 0,
            "byteLength": 5760,
            "byteOffset": 82632,
            "name": "mesh5_coord_bufferView",
            "target": 34962
        },
        {
            "buffer": 0,
            "byteLength": 5760,
            "byteOffset": 88392,
            "name": "mesh5_norm_bufferView",
            "target": 34962
        },
        {
            "buffer": 0,
            "byteLength": 3840,
            "byteOffset": 94152,
            "name": "mesh5_texcoord_bufferView",
            "target": 34962
        },
        {
            "buffer": 0,
            "byteLength": 10440,
            "byteOffset": 97992,
            "name": "mesh5_idx_bufferView",
            "target": 34963
        },
        {
            "buffer": 0,
            "byteLength": 1272,
            "byteOffset": 108432,
            "name": "mesh6_coord_bufferView",
            "target": 34962
        },
        {
            "buffer": 0,
            "byteLength": 1272,
            "byteOffset": 109704,
            "name": "mesh6_norm_bufferView",
            "target": 34962
        },
        {
            "buffer": 0,
            "byteLength": 848,
            "byteOffset": 110976,
            "name": "mesh6_texcoord_bufferView",
            "target": 34962
        },
        {
            "buffer": 0,
            "byteLength": 1272,
            "byteOffset": 111824,
            "name": "mesh6_idx_bufferView",
            "target": 34963
        },
        {
            "buffer": 0,
            "byteLength": 4416,
            "byteOffset": 113096,
            "name": "mesh7_coord_bufferView",
            "target": 34962
        },
        {
            "buffer": 0,
            "byteLength": 4416,
            "byteOffset": 117512,
            "name": "mesh7_norm_bufferView",
            "target": 34962
        },
        {
            "buffer": 0,
            "byteLength": 2944,
            "byteOffset": 121928,
            "name": "mesh7_texcoord_bufferView",
            "target": 34962
        },
        {
            "buffer": 0,
            "byteLength": 7920,
            "byteOffset": 124872,
            "name": "mesh7_idx_bufferView",
            "target": 34963
        },
        {
            "buffer": 0,
            "byteLength": 384,
            "byteOffset": 132792,
            "name": "mesh8_coord_bufferView",
            "target": 34962
        },
        {
            "buffer": 0,
            "byteLength": 384,
            "byteOffset": 133176,
            "name": "mesh8_norm_bufferView",
            "target": 34962
        },
        {
            "buffer": 0,
            "byteLength": 256,
            "byteOffset": 133560,
            "name": "mesh8_texcoord_bufferView",
            "target": 34962
        },
        {
            "buffer": 0,
            "byteLength": 360,
            "byteOffset": 133816,
            "name": "mesh8_idx_bufferView",
            "target": 34963
        },
        {
            "buffer": 0,
            "byteLength": 1536,
            "byteOffset": 134176,
            "name": "mesh9_coord_bufferView",
            "target": 34962
        },
        {
            "buffer": 0,
            "byteLength": 1536,
            "byteOffset": 135712,
            "name": "mesh9_norm_bufferView",
            "target": 34962
        },
        {
            "buffer": 0,
            "byteLength": 1024,
            "byteOffset": 137248,
            "name": "mesh9_texcoord_bufferView",
            "target": 34962
        },
        {
            "buffer": 0,
            "byteLength": 2520,
            "byteOffset": 138272,
            "name": "mesh9_idx_bufferView",
            "target": 34963
        },
        {
            "buffer": 0,
            "byteLength": 552,
            "byteOffset": 140792,
            "name": "mesh10_coord_bufferView",
            "target": 34962
        },
        {
            "buffer": 0,
            "byteLength": 552,
            "byteOffset": 141344,
            "name": "mesh10_norm_bufferView",
            "target": 34962
        },
        {
            "buffer": 0,
            "byteLength": 368,
            "byteOffset": 141896,
            "name": "mesh10_texcoord_bufferView",
            "target": 34962
        },
        {
            "buffer": 0,
            "byteLength": 528,
            "byteOffset": 142264,
            "name": "mesh10_idx_bufferView",
            "target": 34963
        },
        {
            "buffer": 0,
            "byteLength": 3072,
            "byteOffset": 142792,
            "name": "mesh11_coord_bufferView",
            "target": 34962
        },
        {
            "buffer": 0,
            "byteLength": 3072,
            "byteOffset": 145864,
            "name": "mesh11_norm_bufferView",
            "target": 34962
        },
        {
            "buffer": 0,
            "byteLength": 2048,
            "byteOffset": 148936,
            "name": "mesh11_texcoord_bufferView",
            "target": 34962
        },
        {
            "buffer": 0,
            "byteLength": 5400,
            "byteOffset": 150984,
            "name": "mesh11_idx_bufferView",
            "target": 34963
        },
        {
            "buffer": 0,
            "byteLength": 48,
            "byteOffset": 156384,
            "name": "mesh12_coord_bufferView",
            "target": 34962
        },
        {
            "buffer": 0,
            "byteLength": 48,
            "byteOffset": 156432,
            "name": "mesh12_norm_bufferView",
            "target": 34962
        },
        {
            "buffer": 0,
            "byteLength": 32,
            "byteOffset": 156480,
            "name": "mesh12_texcoord_bufferView",
            "target": 34962
        },
        {
            "buffer": 0,
            "byteLength": 24,
            "byteOffset": 156512,
            "name": "mesh12_idx_bufferView",
            "target": 34963
        },
        {
            "buffer": 0,
            "byteLength": 4416,
            "byteOffset": 156536,
            "name": "mesh13_coord_bufferView",
            "target": 34962
        },
        {
            "buffer": 0,
            "byteLength": 4416,
            "byteOffset": 160952,
            "name": "mesh13_norm_bufferView",
            "target": 34962
        },
        {
            "buffer": 0,
            "byteLength": 2944,
            "byteOffset": 165368,
            "name": "mesh13_texcoord_bufferView",
            "target": 34962
        },
        {
            "buffer": 0,
            "byteLength": 7920,
            "byteOffset": 168312,
            "name": "mesh13_idx_bufferView",
            "target": 34963
        },
        {
            "buffer": 0,
            "byteLength": 192,
            "byteOffset": 176232,
            "name": "mesh14_coord_bufferView",
            "target": 34962
        },
        {
            "buffer": 0,
            "byteLength": 192,
            "byteOffset": 176424,
            "name": "mesh14_norm_bufferView",
            "target": 34962
        },
        {
            "buffer": 0,
            "byteLength": 128,
            "byteOffset": 176616,
            "name": "mesh14_texcoord_bufferView",
            "target": 34962
        },
        {
            "buffer": 0,
            "byteLength": 168,
            "byteOffset": 176744,
            "name": "mesh14_idx_bufferView",
            "target": 34963
        },
        {
            "buffer": 0,
            "byteLength": 384,
            "byteOffset": 176912,
            "name": "mesh15_coord_bufferView",
            "target": 34962
        },
        {
            "buffer": 0,
            "byteLength": 384,
            "byteOffset": 177296,
            "name": "mesh15_norm_bufferView",
            "target": 34962
        },
        {
            "buffer": 0,
            "byteLength": 256,
            "byteOffset": 177680,
            "name": "mesh15_texcoord_bufferView",
            "target": 34962
        },
        {
            "buffer": 0,
            "byteLength": 360,
            "byteOffset": 177936,
            "name": "mesh15_idx_bufferView",
            "target": 34963
        },
        {
            "buffer": 0,
            "byteLength": 384,
            "byteOffset": 178296,
            "name": "mesh16_coord_bufferView",
            "target": 34962
        },
        {
            "buffer": 0,
            "byteLength": 384,
            "byteOffset": 178680,
            "name": "mesh16_norm_bufferView",
            "target": 34962
        },
        {
            "buffer": 0,
            "byteLength": 256,
            "byteOffset": 179064,
            "name": "mesh16_texcoord_bufferView",
            "target": 34962
        },
        {
            "buffer": 0,
            "byteLength": 360,
            "byteOffset": 179320,
            "name": "mesh16_idx_bufferView",
            "target": 34963
        },
        {
            "buffer": 0,
            "byteLength": 384,
            "byteOffset": 179680,
            "name": "mesh17_coord_bufferView",
            "target": 34962
        },
        {
            "buffer": 0,
            "byteLength": 384,
            "byteOffset": 180064,
            "name": "mesh17_norm_bufferView",
            "target": 34962
        },
        {
            "buffer": 0,
            "byteLength": 256,
            "byteOffset": 180448,
            "name": "mesh17_texcoord_bufferView",
            "target": 34962
        },
        {
            "buffer": 0,
            "byteLength": 360,
            "byteOffset": 180704,
            "name": "mesh17_idx_bufferView",
            "target": 34963
        },
        {
            "buffer": 0,
            "byteLength": 384,
            "byteOffset": 181064,
            "name": "mesh18_coord_bufferView",
            "target": 34962
        },
        {
            "buffer": 0,
            "byteLength": 384,
            "byteOffset": 181448,
            "name": "mesh18_norm_bufferView",
            "target": 34962
        },
        {
            "buffer": 0,
            "byteLength": 256,
            "byteOffset": 181832,
            "name": "mesh18_texcoord_bufferView",
            "target": 34962
        },
        {
            "buffer": 0,
            "byteLength": 360,
            "byteOffset": 182088,
            "name": "mesh18_idx_bufferView",
            "target": 34963
        },
        {
            "buffer": 0,
            "byteLength": 384,
            "byteOffset": 182448,
            "name": "mesh19_coord_bufferView",
            "target": 34962
        },
        {
            "buffer": 0,
            "byteLength": 384,
            "byteOffset": 182832,
            "name": "mesh19_norm_bufferView",
            "target": 34962
        },
        {
            "buffer": 0,
            "byteLength": 256,
            "byteOffset": 183216,
            "name": "mesh19_texcoord_bufferView",
            "target": 34962
        },
        {
            "buffer": 0,
            "byteLength": 360,
            "byteOffset": 183472,
            "name": "mesh19_idx_bufferView",
            "target": 34963
        },
        {
            "buffer": 0,
            "byteLength": 1536,
            "byteOffset": 183832,
            "name": "mesh20_coord_bufferView",
            "target": 34962
        },
        {
            "buffer": 0,
            "byteLength": 1536,
            "byteOffset": 185368,
            "name": "mesh20_norm_bufferView",
            "target": 34962
        },
        {
            "buffer": 0,
            "byteLength": 1024,
            "byteOffset": 186904,
            "name": "mesh20_texcoord_bufferView",
            "target": 34962
        },
        {
            "buffer": 0,
            "byteLength": 2520,
            "byteOffset": 187928,
            "name": "mesh20_idx_bufferView",
            "target": 34963
        },
        {
            "buffer": 0,
            "byteLength": 48,
            "byteOffset": 190448,
            "name": "mesh21_coord_bufferView",
            "target": 34962
        },
        {
            "buffer": 0,
            "byteLength": 48,
            "byteOffset": 190496,
            "name": "mesh21_norm_bufferView",
            "target": 34962
        },
        {
            "buffer": 0,
            "byteLength": 32,
            "byteOffset": 190544,
            "name": "mesh21_texcoord_bufferView",
            "target": 34962
        },
        {
            "buffer": 0,
            "byteLength": 24,
            "byteOffset": 190576,
            "name": "mesh21_idx_bufferView",
            "target": 34963
        },
        {
            "buffer": 0,
            "byteLength": 2892,
            "byteOffset": 190600,
            "name": "mesh22_coord_bufferView",
            "target": 34962
        },
        {
            "buffer": 0,
            "byteLength": 2892,
            "byteOffset": 193492,
            "name": "mesh22_norm_bufferView",
            "target": 34962
        },
        {
            "buffer": 0,
            "byteLength": 1928,
            "byteOffset": 196384,
            "name": "mesh22_texcoord_bufferView",
            "target": 34962
        },
        {
            "buffer": 0,
            "byteLength": 5220,
            "byteOffset": 198312,
            "name": "mesh22_idx_bufferView",
            "target": 34963
        },
        {
            "buffer": 0,
            "byteLength": 3072,
            "byteOffset": 203532,
            "name": "mesh23_coord_bufferView",
            "target": 34962
        },
        {
            "buffer": 0,
            "byteLength": 3072,
            "byteOffset": 206604,
            "name": "mesh23_norm_bufferView",
            "target": 34962
        },
        {
            "buffer": 0,
            "byteLength": 2048,
            "byteOffset": 209676,
            "name": "mesh23_texcoord_bufferView",
            "target": 34962
        },
        {
            "buffer": 0,
            "byteLength": 5400,
            "byteOffset": 211724,
            "name": "mesh23_idx_bufferView",
            "target": 34963
        },
        {
            "buffer": 0,
            "byteLength": 1272,
            "byteOffset": 217124,
            "name": "mesh24_coord_bufferView",
            "target": 34962
        },
        {
            "buffer": 0,
            "byteLength": 1272,
            "byteOffset": 218396,
            "name": "mesh24_norm_bufferView",
            "target": 34962
        },
        {
            "buffer": 0,
            "byteLength": 848,
            "byteOffset": 219668,
            "name": "mesh24_texcoord_bufferView",
            "target": 34962
        },
        {
            "buffer": 0,
            "byteLength": 1272,
            "byteOffset": 220516,
            "name": "mesh24_idx_bufferView",
            "target": 34963
        },
        {
            "buffer": 0,
            "byteLength": 48,
            "byteOffset": 221788,
            "name": "mesh25_coord_bufferView",
            "target": 34962
        },
        {
            "buffer": 0,
            "byteLength": 48,
            "byteOffset": 221836,
            "name": "mesh25_norm_bufferView",
            "target": 34962
        },
        {
            "buffer": 0,
            "byteLength": 32,
            "byteOffset": 221884,
            "name": "mesh25_texcoord_bufferView",
            "target": 34962
        },
        {
            "buffer": 0,
            "byteLength": 24,
            "byteOffset": 221916,
            "name": "mesh25_idx_bufferView",
            "target": 34963
        },
        {
            "buffer": 0,
            "byteLength": 48,
            "byteOffset": 221940,
            "name": "mesh26_coord_bufferView",
            "target": 34962
        },
        {
            "buffer": 0,
            "byteLength": 48,
            "byteOffset": 221988,
            "name": "mesh26_norm_bufferView",
            "target": 34962
        },
        {
            "buffer": 0,
            "byteLength": 32,
            "byteOffset": 222036,
            "name": "mesh26_texcoord_bufferView",
            "target": 34962
        },
        {
            "buffer": 0,
            "byteLength": 24,
            "byteOffset": 222068,
            "name": "mesh26_idx_bufferView",
            "target": 34963
        },
        {
            "buffer": 0,
            "byteLength": 2892,
            "byteOffset": 222092,
            "name": "mesh27_coord_bufferView",
            "target": 34962
        },
        {
            "buffer": 0,
            "byteLength": 2892,
            "byteOffset": 224984,
            "name": "mesh27_norm_bufferView",
            "target": 34962
        },
        {
            "buffer": 0,
            "byteLength": 1928,
            "byteOffset": 227876,
            "name": "mesh27_texcoord_bufferView",
            "target": 34962
        },
        {
            "buffer": 0,
            "byteLength": 5220,
            "byteOffset": 229804,
            "name": "mesh27_idx_bufferView",
            "target": 34963
        },
        {
            "buffer": 0,
            "byteLength": 384,
            "byteOffset": 235024,
            "name": "mesh28_coord_bufferView",
            "target": 34962
        },
        {
            "buffer": 0,
            "byteLength": 384,
            "byteOffset": 235408,
            "name": "mesh28_norm_bufferView",
            "target": 34962
        },
        {
            "buffer": 0,
            "byteLength": 256,
            "byteOffset": 235792,
            "name": "mesh28_texcoord_bufferView",
            "target": 34962
        },
        {
            "buffer": 0,
            "byteLength": 360,
            "byteOffset": 236048,
            "name": "mesh28_idx_bufferView",
            "target": 34963
        },
        {
            "buffer": 0,
            "byteLength": 384,
            "byteOffset": 236408,
            "name": "mesh29_coord_bufferView",
            "target": 34962
        },
        {
            "buffer": 0,
            "byteLength": 384,
            "byteOffset": 236792,
            "name": "mesh29_norm_bufferView",
            "target": 34962
        },
        {
            "buffer": 0,
            "byteLength": 256,
            "byteOffset": 237176,
            "name": "mesh29_texcoord_bufferView",
            "target": 34962
        },
        {
            "buffer": 0,
            "byteLength": 360,
            "byteOffset": 237432,
            "name": "mesh29_idx_bufferView",
            "target": 34963
        },
        {
            "buffer": 0,
            "byteLength": 2892,
            "byteOffset": 237792,
            "name": "mesh30_coord_bufferView",
            "target": 34962
        },
        {
            "buffer": 0,
            "byteLength": 2892,
            "byteOffset": 240684,
            "name": "mesh30_norm_bufferView",
            "target": 34962
        },
        {
            "buffer": 0,
            "byteLength": 1928,
            "byteOffset": 243576,
            "name": "mesh30_texcoord_bufferView",
            "target": 34962
        },
        {
            "buffer": 0,
            "byteLength": 5220,
            "byteOffset": 245504,
            "name": "mesh30_idx_bufferView",
            "target": 34963
        },
        {
            "buffer": 0,
            "byteLength": 384,
            "byteOffset": 250724,
            "name": "mesh31_coord_bufferView",
            "target": 34962
        },
        {
            "buffer": 0,
            "byteLength": 384,
            "byteOffset": 251108,
            "name": "mesh31_norm_bufferView",
            "target": 34962
        },
        {
            "buffer": 0,
            "byteLength": 256,
            "byteOffset": 251492,
            "name": "mesh31_texcoord_bufferView",
            "target": 34962
        },
        {
            "buffer": 0,
            "byteLength": 360,
            "byteOffset": 251748,
            "name": "mesh31_idx_bufferView",
            "target": 34963
        },
        {
            "buffer": 0,
            "byteLength": 384,
            "byteOffset": 252108,
            "name": "mesh32_coord_bufferView",
            "target": 34962
        },
        {
            "buffer": 0,
            "byteLength": 384,
            "byteOffset": 252492,
            "name": "mesh32_norm_bufferView",
            "target": 34962
        },
        {
            "buffer": 0,
            "byteLength": 256,
            "byteOffset": 252876,
            "name": "mesh32_texcoord_bufferView",
            "target": 34962
        },
        {
            "buffer": 0,
            "byteLength": 360,
            "byteOffset": 253132,
            "name": "mesh32_idx_bufferView",
            "target": 34963
        },
        {
            "buffer": 0,
            "byteLength": 384,
            "byteOffset": 253492,
            "name": "mesh33_coord_bufferView",
            "target": 34962
        },
        {
            "buffer": 0,
            "byteLength": 384,
            "byteOffset": 253876,
            "name": "mesh33_norm_bufferView",
            "target": 34962
        },
        {
            "buffer": 0,
            "byteLength": 256,
            "byteOffset": 254260,
            "name": "mesh33_texcoord_bufferView",
            "target": 34962
        },
        {
            "buffer": 0,
            "byteLength": 360,
            "byteOffset": 254516,
            "name": "mesh33_idx_bufferView",
            "target": 34963
        },
        {
            "buffer": 0,
            "byteLength": 2892,
            "byteOffset": 254876,
            "name": "mesh34_coord_bufferView",
            "target": 34962
        },
        {
            "buffer": 0,
            "byteLength": 2892,
            "byteOffset": 257768,
            "name": "mesh34_norm_bufferView",
            "target": 34962
        },
        {
            "buffer": 0,
            "byteLength": 1928,
            "byteOffset": 260660,
            "name": "mesh34_texcoord_bufferView",
            "target": 34962
        },
        {
            "buffer": 0,
            "byteLength": 5220,
            "byteOffset": 262588,
            "name": "mesh34_idx_bufferView",
            "target": 34963
        }
    ],
    "buffers": [
        {
            "byteLength": 267808,
            "name": "Total_buffer",
            "uri": "data:application/octet-stream;base64,"
        }
    ],
    "extensionsUsed": [
        "PTC_onshape_metadata"
    ],
    "materials": [
        {
            "doubleSided": true,
            "name": "0.615686_0.811765_0.929412_0.000000_0.000000",
            "pbrMetallicRoughness": {
                "baseColorFactor": [
                    0.615686297416687,
                    0.8117647171020508,
                    0.929411768913269,
                    1.0
                ],
                "metallicFactor": 0.0
            }
        }
    ],
    "meshes": [
        {
            "name": "mesh0_mesh",
            "primitives": [
                {
                    "attributes": {
                        "NORMAL": 1,
                        "POSITION": 0,
                        "TEXCOORD_0": 2
                    },
                    "indices": 3,
                    "material": 0
                },
                {
                    "attributes": {
                        "NORMAL": 5,
                        "POSITION": 4,
                        "TEXCOORD_0": 6
                    },
                    "indices": 7,
                    "material": 0
                },
                {
                    "attributes": {
                        "NORMAL": 9,
                        "POSITION": 8,
                        "TEXCOORD_0": 10
                    },
                    "indices": 11,
                    "material": 0
                },
                {
                    "attributes": {
                        "NORMAL": 13,
                        "POSITION": 12,
                        "TEXCOORD_0": 14
                    },
                    "indices": 15,
                    "material": 0
                },
                {
                    "attributes": {
                        "NORMAL": 17,
                        "POSITION": 16,
                        "TEXCOORD_0": 18
                    },
                    "indices": 19,
                    "material": 0
                },
                {
                    "attributes": {
                        "NORMAL": 21,
                        "POSITION": 20,
                        "TEXCOORD_0": 22
                    },
                    "indices": 23,
                    "material": 0
                },
                {
                    "attributes": {
                        "NORMAL": 25,
                        "POSITION": 24,
                        "TEXCOORD_0": 26
                    },
                    "indices": 27,
                    "material": 0
                },
                {
                    "attributes": {
                        "NORMAL": 29,
                        "POSITION": 28,
                        "TEXCOORD_0": 30
                    },
                    "indices": 31,
                    "material": 0
                },
                {
                    "attributes": {
                        "NORMAL": 33,
                        "POSITION": 32,
                        "TEXCOORD_0": 34
                    },
                    "indices": 35,
                    "material": 0
                },
                {
                    "attributes": {
                        "NORMAL": 37,
                        "POSITION": 36,
                        "TEXCOORD_0": 38
                    },
                    "indices": 39,
                    "material": 0
                },
                {
                    "attributes": {
                        "NORMAL": 41,
                        "POSITION": 40,
                        "TEXCOORD_0": 42
                    },
                    "indices": 43,
                    "material": 0
                },
                {
                    "attributes": {
                        "NORMAL": 45,
                        "POSITION": 44,
                        "TEXCOORD_0": 46
                    },
                    "indices": 47,
                    "material": 0
                },
                {
                    "attributes": {
                        "NORMAL": 49,
                        "POSITION": 48,
                        "TEXCOORD_0": 50
                    },
                    "indices": 51,
                    "material": 0
                },
                {
                    "attributes": {
                        "NORMAL": 53,
                        "POSITION": 52,
                        "TEXCOORD_0": 54
                    },
                    "indices": 55,
                    "material": 0
                },
                {
                    "attributes": {
                        "NORMAL": 57,
                        "POSITION": 56,
                        "TEXCOORD_0": 58
                    },
                    "indices": 59,
                    "material": 0
                },
                {
                    "attributes": {
                        "NORMAL": 61,
                        "POSITION": 60,
                        "TEXCOORD_0": 62
                    },
                    "indices": 63,
                    "material": 0
                },
                {
                    "attributes": {
                        "NORMAL": 65,
                        "POSITION": 64,
                        "TEXCOORD_0": 66
                    },
                    "indices": 67,
                    "material": 0
                },
                {
                    "attributes": {
                        "NORMAL": 69,
                        "POSITION": 68,
                        "TEXCOORD_0": 70
                    },
                    "indices": 71,
                    "material": 0
                },
                {
                    "attributes": {
                        "NORMAL": 73,
                        "POSITION": 72,
                        "TEXCOORD_0": 74
                    },
                    "indices": 75,
                    "material": 0
                },
                {
                    "attributes": {
                        "NORMAL": 77,
                        "POSITION": 76,
                        "TEXCOORD_0": 78
                    },
                    "indices": 79,
                    "material": 0
                },
                {
                    "attributes": {
                        "NORMAL": 81,
                        "POSITION": 80,
                        "TEXCOORD_0": 82
                    },
                    "indices": 83,
                    "material": 0
                },
                {
                    "attributes": {
                        "NORMAL": 85,
                        "POSITION": 84,
                        "TEXCOORD_0": 86
                    },
                    "indices": 87,
                    "material": 0
                },
                {
                    "attributes": {
                        "NORMAL": 89,
                        "POSITION": 88,
                        "TEXCOORD_0": 90
                    },
                    "indices": 91,
                    "material": 0
                },
                {
                    "attributes": {
                        "NORMAL": 93,
                        "POSITION": 92,
                        "TEXCOORD_0": 94
                    },
                    "indices": 95,
                    "material": 0
                },
                {
                    "attributes": {
                        "NORMAL": 97,
                        "POSITION": 96,
                        "TEXCOORD_0": 98
                    },
                    "indices": 99,
                    "material": 0
                },
                {
                    "attributes": {
                        "NORMAL": 101,
                        "POSITION": 100,
                        "TEXCOORD_0": 102
                    },
                    "indices": 103,
                    "material": 0
                },
                {
                    "attributes": {
                        "NORMAL": 105,
                        "POSITION": 104,
                        "TEXCOORD_0": 106
                    },
                    "indices": 107,
                    "material": 0
                },
                {
                    "attributes": {
                        "NORMAL": 109,
                        "POSITION": 108,
                        "TEXCOORD_0": 110
                    },
                    "indices": 111,
                    "material": 0
                },
                {
                    "attributes": {
                        "NORMAL": 113,
                        "POSITION": 112,
                        "TEXCOORD_0": 114
                    },
                    "indices": 115,
                    "material": 0
                },
                {
                    "attributes": {
                        "NORMAL": 117,
                        "POSITION": 116,
                        "TEXCOORD_0": 118
                    },
                    "indices": 119,
                    "material": 0
                },
                {
                    "attributes": {
                        "NORMAL": 121,
                        "POSITION": 120,
                        "TEXCOORD_0": 122
                    },
                    "indices": 123,
                    "material": 0
                },
                {
                    "attributes": {
                        "NORMAL": 125,
                        "POSITION": 124,
                        "TEXCOORD_0": 126
                    },
                    "indices": 127,
                    "material": 0
                },
                {
                    "attributes": {
                        "NORMAL": 129,
                        "POSITION": 128,
                        "TEXCOORD_0": 130
                    },
                    "indices": 131,
                    "material": 0
                },
                {
                    "attributes": {
                        "NORMAL": 133,
                        "POSITION": 132,
                        "TEXCOORD_0": 134
                    },
                    "indices": 135,
                    "material": 0
                },
                {
                    "attributes": {
                        "NORMAL": 137,
                        "POSITION": 136,
                        "TEXCOORD_0": 138
                    },
                    "indices": 139,
                    "material": 0
                }
            ]
        }
    ],
    "nodes": [
        {
            "extensions": {
                "PTC_onshape_metadata": {
                    "entity_type": "Body",
                    "id": [
                        "JHD"
                    ]
                }
            },
            "mesh": 0,
            "name": "Part 1"
        }
    ],
    "scene": 0,
    "scenes": [
        {
            "name": "Root",
            "nodes": [
                0
            ]
        }
    ]
}